<svg xmlns="http://www.w3.org/2000/svg" viewBox="0 0 512 512">
  <rect width="512" height="512" rx="100" fill="#D92323"/>
  <path fill="#ffffff" d="M363.5,145.4c-11.4-1.9-22-4.1-30.8,4.1l-60.6,56H204.6l-20.2-46.1c-4.1-9.5-15.3-13.8-24.8-9.8L110.8,171 c-9.5,4.1-13.8,15.3-9.8,24.8l26.2,60.2H66c-12.9,0-23.4,10.5-23.4,23.4s10.5,23.4,23.4,23.4h79.8l12,27.5 c-26,16-43.2,44.6-43.2,77.1c0,50.5,40.9,91.3,91.3,91.3s91.3-40.9,91.3-91.3c0-25.9-10.6-49.4-27.8-66.4h77.7 c15.2,17.4,37.4,28.3,62.2,28.3c46.1,0,83.3-37.3,83.3-83.3c0-38.8-26.6-71.4-62.3-80.8l34.4-42.3C372,152.6,375.1,147.3,363.5,145.4z M205.7,460.5c-29.6,0-53.6-24-53.6-53.6c0-29.6,24-53.6,53.6-53.6c29.6,0,53.6,24,53.6,53.6C259.3,436.5,235.3,460.5,205.7,460.5z M408.8,367.9c-25.2,0-45.6-20.4-45.6-45.6s20.4-45.6,45.6-45.6c25.2,0,45.6,20.4,45.6,45.6C454.4,347.5,434,367.9,408.8,367.9z"/>
</svg>
